{
  "accessors": [
    {
      "bufferView": 0,
      "componentType": 5126,
      "count": 24,
      "max": [
        50.0,
        50.0,
        50.0
      ],
      "min": [
        -50.0,
        -50.0,
        -50.0
      ],
      "type": "VEC3"
    },
    {
      "bufferView": 1,
      "componentType": 5126,
      "count": 24,
      "max": [
        1.0,
        1.0,
        1.0
      ],
      "min": [
        -1.0,
        -1.0,
        -1.0
      ],
      "type": "VEC3"
    },
    {
      "bufferView": 2,
      "componentType": 5126,
      "count": 24,
      "max": [
        0.5773502588272095,
        0.5773502588272095,
        0.5773502588272095,
        1.0
      ],
      "min": [
        0.5773502588272095,
        0.5773502588272095,
        0.5773502588272095,
        1.0
      ],
      "type": "VEC4"
    },
    {
      "bufferView": 3,
      "componentType": 5126,
      "count": 24,
      "max": [
        1.0,
        1.0
      ],
      "min": [
        0.0,
        0.0
      ],
      "type": "VEC2"
    },
    {
      "bufferView": 4,
      "componentType": 5125,
      "count": 36,
      "max": [
        23
      ],
      "min": [
        0
      ],
      "type": "SCALAR"
    }
  ],
  "asset": {
    "version": "2.0"
  },
  "bufferViews": [
    {
      "buffer": 0,
      "byteLength": 288,
      "target": 34962
    },
    {
      "buffer": 0,
      "byteLength": 288,
      "byteOffset": 288,
      "target": 34962
    },
    {
      "buffer": 0,
      "byteLength": 384,
      "byteOffset": 576,
      "target": 34962
    },
    {
      "buffer": 0,
      "byteLength": 192,
      "byteOffset": 960,
      "target": 34962
    },
    {
      "buffer": 0,
      "byteLength": 144,
      "byteOffset": 1152,
      "target": 34963
    }
  ],
  "buffers": [
    {
      "byteLength": 1296,
      "uri": "Stage0.bin"
    }
  ],
  "images": [
    {
      "uri": "..\\..\\..\\..\\..\\My project 2\\Assets\\AngeloMaN87\\Prototype Map\\Textures\\PrototypeMap_Grey.png"
    }
  ],
  "materials": [
    {
      "emissiveFactor": [
        1.0,
        1.0,
        1.0
      ],
      "name": "Default_Material",
      "pbrMetallicRoughness": {
        "baseColorFactor": [
          0.31660228967666626,
          0.31659913063049316,
          0.31659913063049316,
          1.0
        ],
        "baseColorTexture": {
          "index": 0
        },
        "metallicFactor": 0.0
      }
    }
  ],
  "meshes": [
    {
      "primitives": [
        {
          "attributes": {
            "NORMAL": 1,
            "POSITION": 0,
            "TANGENT": 2,
            "TEXCOORD_0": 3
          },
          "indices": 4,
          "material": 0,
          "mode": 4
        }
      ]
    }
  ],
  "nodes": [
    {
      "mesh": 0,
      "name": "Cube__2_",
      "rotation": [
        1.0,
        0.0,
        0.0,
        0.0
      ],
      "scale": [
        50.0,
        0.01927393116056919,
        50.0
      ],
      "translation": [
        0.0,
        0.0,
        0.0
      ]
    }
  ],
  "samplers": [
    {
      "wrapS": 10497,
      "wrapT": 10497
    }
  ],
  "scenes": [
    {
      "nodes": [
        0
      ]
    }
  ],
  "textures": [
    {
      "sampler": 0,
      "source": 0
    }
  ]
}
